<svg style="position: absolute; width: 0; height: 0; overflow: hidden;" version="1.1" 
	xmlns="http://www.w3.org/2000/svg" 
	xmlns:xlink="http://www.w3.org/1999/xlink">
	<defs>
		<symbol id="icon-star-full" viewBox="0 0 32 32">
			<title>star-full</title>
			<path d="M32 12.408l-11.056-1.607-4.944-10.018-4.944 10.018-11.056 1.607 8 7.798-1.889 11.011 9.889-5.199 9.889 5.199-1.889-11.011 8-7.798z"></path>
		</symbol>
		<symbol id="icon-add" viewBox="0 0 32 32">
			<title>add</title>
			<path d="M25.333 17.333h-8v8h-2.667v-8h-8v-2.667h8v-8h2.667v8h8v2.667z"></path>
		</symbol>
		<symbol id="icon-minus" viewBox="0 0 24 24">
			<title>minus</title>
			<path d="M5 13h14c0.552 0 1-0.448 1-1s-0.448-1-1-1h-14c-0.552 0-1 0.448-1 1s0.448 1 1 1z"></path>
		</symbol>
		<symbol id="icon-spinner" viewBox="0 0 32 32">
			<title>spinner</title>
			<path d="M16 32c-4.274 0-8.292-1.664-11.314-4.686s-4.686-7.040-4.686-11.314c0-3.026 0.849-5.973 2.456-8.522 1.563-2.478 3.771-4.48 6.386-5.791l1.344 2.682c-2.126 1.065-3.922 2.693-5.192 4.708-1.305 2.069-1.994 4.462-1.994 6.922 0 7.168 5.832 13 13 13s13-5.832 13-13c0-2.459-0.69-4.853-1.994-6.922-1.271-2.015-3.066-3.643-5.192-4.708l1.344-2.682c2.615 1.31 4.824 3.313 6.386 5.791 1.607 2.549 2.456 5.495 2.456 8.522 0 4.274-1.664 8.292-4.686 11.314s-7.040 4.686-11.314 4.686z"></path>
		</symbol>
		<symbol id="icon-upload" viewBox="0 0 32 32">
			<title>upload</title>
			<path d="M14 18h4v-8h6l-8-8-8 8h6zM20 13.5v3.085l9.158 3.415-13.158 4.907-13.158-4.907 9.158-3.415v-3.085l-12 4.5v8l16 6 16-6v-8z"></path>
		</symbol>
		<symbol id="icon-info" viewBox="0 0 32 32">
			<title>info</title>
			<path d="M14 9.5c0-0.825 0.675-1.5 1.5-1.5h1c0.825 0 1.5 0.675 1.5 1.5v1c0 0.825-0.675 1.5-1.5 1.5h-1c-0.825 0-1.5-0.675-1.5-1.5v-1z"></path>
			<path d="M20 24h-8v-2h2v-6h-2v-2h6v8h2z"></path>
			<path d="M16 0c-8.837 0-16 7.163-16 16s7.163 16 16 16 16-7.163 16-16-7.163-16-16-16zM16 29c-7.18 0-13-5.82-13-13s5.82-13 13-13 13 5.82 13 13-5.82 13-13 13z"></path>
		</symbol>
		<symbol id="icon-warning" viewBox="0 0 32 32">
			<title>warning</title>
			<path d="M16 2.899l13.409 26.726h-26.819l13.409-26.726zM16 0c-0.69 0-1.379 0.465-1.903 1.395l-13.659 27.222c-1.046 1.86-0.156 3.383 1.978 3.383h27.166c2.134 0 3.025-1.522 1.978-3.383h0l-13.659-27.222c-0.523-0.93-1.213-1.395-1.903-1.395v0z"></path>
			<path d="M18 26c0 1.105-0.895 2-2 2s-2-0.895-2-2c0-1.105 0.895-2 2-2s2 0.895 2 2z"></path>
			<path d="M16 22c-1.105 0-2-0.895-2-2v-6c0-1.105 0.895-2 2-2s2 0.895 2 2v6c0 1.105-0.895 2-2 2z"></path>
		</symbol>
		<symbol id="icon-error" viewBox="0 0 32 32">
			<title>error</title>
			<path d="M16 3c-3.472 0-6.737 1.352-9.192 3.808s-3.808 5.72-3.808 9.192c0 3.472 1.352 6.737 3.808 9.192s5.72 3.808 9.192 3.808c3.472 0 6.737-1.352 9.192-3.808s3.808-5.72 3.808-9.192c0-3.472-1.352-6.737-3.808-9.192s-5.72-3.808-9.192-3.808zM16 0v0c8.837 0 16 7.163 16 16s-7.163 16-16 16c-8.837 0-16-7.163-16-16s7.163-16 16-16zM14 22h4v4h-4zM14 6h4v12h-4z"></path>
		</symbol>
		<symbol id="icon-success" viewBox="0 0 32 32">
			<title>success</title>
			<path d="M27 4l-15 15-7-7-5 5 12 12 20-20z"></path>
		</symbol>
		<symbol id="icon-cross" viewBox="0 0 24 24">
			<title>cross</title>
			<path d="M13.4 12l5.3-5.3c0.4-0.4 0.4-1 0-1.4s-1-0.4-1.4 0l-5.3 5.3-5.3-5.3c-0.4-0.4-1-0.4-1.4 0s-0.4 1 0 1.4l5.3 5.3-5.3 5.3c-0.4 0.4-0.4 1 0 1.4 0.2 0.2 0.4 0.3 0.7 0.3s0.5-0.1 0.7-0.3l5.3-5.3 5.3 5.3c0.2 0.2 0.5 0.3 0.7 0.3s0.5-0.1 0.7-0.3c0.4-0.4 0.4-1 0-1.4l-5.3-5.3z"></path>
		</symbol>
		<symbol id="icon-user" viewBox="0 0 32 32">
			<title>user</title>
			<path d="M18 22.082v-1.649c2.203-1.241 4-4.337 4-7.432 0-4.971 0-9-6-9s-6 4.029-6 9c0 3.096 1.797 6.191 4 7.432v1.649c-6.784 0.555-12 3.888-12 7.918h28c0-4.030-5.216-7.364-12-7.918z"></path>
		</symbol>
		<symbol id="icon-enter" viewBox="0 0 32 32">
			<title>enter</title>
			<path d="M12 16h-10v-4h10v-4l6 6-6 6zM32 0v26l-12 6v-6h-12v-8h2v6h10v-18l8-4h-18v8h-2v-10z"></path>
		</symbol>
		<symbol id="icon-exit" viewBox="0 0 32 32">
			<title>exit</title>
			<path d="M24 20v-4h-10v-4h10v-4l6 6zM22 18v8h-10v6l-12-6v-26h22v10h-2v-8h-16l8 4v18h8v-6z"></path>
		</symbol>
		<symbol id="icon-back" viewBox="0 0 24 24">
			<title>back</title>
			<path d="M9.7,12l7.6-7.6c0.6-0.6,0.6-1.4,0-2c-0.6-0.6-1.4-0.6-2,0L6.7,11c-0.6,0.6-0.6,1.4,0,2l8.6,8.6c0.3,0.3,0.7,0.4,1,0.4	c0.3,0,0.7-0.1,1-0.4c0.6-0.6,0.6-1.4,0-2C17.3,19.6,9.7,12,9.7,12z"/>
		</symbol>
		<symbol id="icon-search" viewBox="0 0 32 32">
			<title>search</title>
			<path d="M31.008 27.231l-7.58-6.447c-0.784-0.705-1.622-1.029-2.299-0.998 1.789-2.096 2.87-4.815 2.87-7.787 0-6.627-5.373-12-12-12s-12 5.373-12 12 5.373 12 12 12c2.972 0 5.691-1.081 7.787-2.87-0.031 0.677 0.293 1.515 0.998 2.299l6.447 7.58c1.104 1.226 2.907 1.33 4.007 0.23s0.997-2.903-0.23-4.007zM12 20c-4.418 0-8-3.582-8-8s3.582-8 8-8 8 3.582 8 8-3.582 8-8 8z"></path>
		</symbol>
		<symbol id="icon-sliders" viewBox="0 0 24 24">
			<title>sliders</title>
			<path d="M4 11c0.6 0 1-0.4 1-1v-7c0-0.6-0.4-1-1-1s-1 0.4-1 1v7c0 0.6 0.4 1 1 1z"></path>
			<path d="M12 11c-0.6 0-1 0.4-1 1v9c0 0.6 0.4 1 1 1s1-0.4 1-1v-9c0-0.6-0.4-1-1-1z"></path>
			<path d="M20 13c0.6 0 1-0.4 1-1v-9c0-0.6-0.4-1-1-1s-1 0.4-1 1v9c0 0.6 0.4 1 1 1z"></path>
			<path d="M7 13h-6c-0.6 0-1 0.4-1 1s0.4 1 1 1h2v6c0 0.6 0.4 1 1 1s1-0.4 1-1v-6h2c0.6 0 1-0.4 1-1s-0.4-1-1-1z"></path>
			<path d="M15 7h-2v-4c0-0.6-0.4-1-1-1s-1 0.4-1 1v4h-2c-0.6 0-1 0.4-1 1s0.4 1 1 1h6c0.6 0 1-0.4 1-1s-0.4-1-1-1z"></path>
			<path d="M23 15h-6c-0.6 0-1 0.4-1 1s0.4 1 1 1h2v4c0 0.6 0.4 1 1 1s1-0.4 1-1v-4h2c0.6 0 1-0.4 1-1s-0.4-1-1-1z"></path>
		</symbol>
	</defs>
</svg>