<svg style="position: absolute; width: 0; height: 0; overflow: hidden;" version="1.1" xmlns="http://www.w3.org/2000/svg" xmlns:xlink="http://www.w3.org/1999/xlink">
<defs>
<symbol id="icon-close" viewBox="0 0 25 32">
<title>close</title>
<path d="M23.179 23.607q0 0.714-0.5 1.214l-2.429 2.429q-0.5 0.5-1.214 0.5t-1.214-0.5l-5.25-5.25-5.25 5.25q-0.5 0.5-1.214 0.5t-1.214-0.5l-2.429-2.429q-0.5-0.5-0.5-1.214t0.5-1.214l5.25-5.25-5.25-5.25q-0.5-0.5-0.5-1.214t0.5-1.214l2.429-2.429q0.5-0.5 1.214-0.5t1.214 0.5l5.25 5.25 5.25-5.25q0.5-0.5 1.214-0.5t1.214 0.5l2.429 2.429q0.5 0.5 0.5 1.214t-0.5 1.214l-5.25 5.25 5.25 5.25q0.5 0.5 0.5 1.214z"></path>
</symbol>
<symbol id="icon-folder_close" viewBox="0 0 30 32">
<title>folder_close</title>
<path d="M29.714 10.857v12.571q0 1.643-1.179 2.821t-2.821 1.179h-21.714q-1.643 0-2.821-1.179t-1.179-2.821v-17.143q0-1.643 1.179-2.821t2.821-1.179h5.714q1.643 0 2.821 1.179t1.179 2.821v0.571h12q1.643 0 2.821 1.179t1.179 2.821z"></path>
</symbol>
<symbol id="icon-maximize" viewBox="0 0 32 32">
<title>maximize</title>
<path d="M4.571 25.143h22.857v-13.714h-22.857v13.714zM32 5.143v21.714q0 1.179-0.839 2.018t-2.018 0.839h-26.286q-1.179 0-2.018-0.839t-0.839-2.018v-21.714q0-1.179 0.839-2.018t2.018-0.839h26.286q1.179 0 2.018 0.839t0.839 2.018z"></path>
</symbol>
<symbol id="icon-minimize" viewBox="0 0 32 32">
<title>minimize</title>
<path d="M32 23.429v3.429q0 1.179-0.839 2.018t-2.018 0.839h-26.286q-1.179 0-2.018-0.839t-0.839-2.018v-3.429q0-1.179 0.839-2.018t2.018-0.839h26.286q1.179 0 2.018 0.839t0.839 2.018z"></path>
</symbol>
<symbol id="icon-restore" viewBox="0 0 37 32">
<title>restore</title>
<path d="M4.571 27.429h13.714v-9.143h-13.714v9.143zM22.857 18.286h9.143v-13.714h-13.714v4.571h1.714q1.179 0 2.018 0.839t0.839 2.018v6.286zM36.571 2.857v17.143q0 1.179-0.839 2.018t-2.018 0.839h-10.857v6.286q0 1.179-0.839 2.018t-2.018 0.839h-17.143q-1.179 0-2.018-0.839t-0.839-2.018v-17.143q0-1.179 0.839-2.018t2.018-0.839h10.857v-6.286q0-1.179 0.839-2.018t2.018-0.839h17.143q1.179 0 2.018 0.839t0.839 2.018z"></path>
</symbol>
</defs>
</svg>
